<?xml version="1.0" encoding="UTF-8"?>
<svg id="Camada_2" data-name="Camada 2" xmlns="http://www.w3.org/2000/svg" viewBox="0 0 1194.81 1185.96">
  <defs>
    <style>
      .cls-1 {
        fill: #fff;
        stroke-width: 0px;
      }
    </style>
  </defs>
  <g id="Camada_1-2" data-name="Camada 1">
    <path class="cls-1" d="M736.94,375.37c-12.66-8.51-25.91-16.28-37.89-25.66-84.73-66.34-175.7-121.29-278.59-155-43.47-14.24-87.64-21.43-133.65-19.33-53.64,2.45-79.75,38.9-80,84.67-.23,43.33,11.59,83.38,29.04,121.78,37.82,83.2,92.44,153.64,165.89,208.71,27.01,20.25,57.5,32.99,91.13,37.25,34.8,4.41,65.6-3.87,91.05-29.4,45.14-45.28,90.58-90.25,135.99-135.26,9.19-9.11,19.29-17.34,28.12-26.78,8.15-8.71,15.14-18.49,22.65-27.8,5.86-4.07,12.47-7.38,17.47-12.33,100.08-99.18,199.78-198.74,300-297.77,32.24-31.86,65.69-62.49,98.69-93.57,2.22-2.09,5.3-3.28,7.98-4.9-1.36,3.28-1.92,7.32-4.2,9.73-29.44,31.21-59.29,62.03-88.71,93.26-39.4,41.83-79.15,83.35-117.57,126.07-37.87,42.11-74.34,85.48-111.21,128.48-5.77,6.73-10.82,14.17-15.55,21.69-23.39,37.19-29.23,76.06-13.69,118.26,10.5,28.52,25.5,54.08,43.26,78.32,48.5,66.18,91.99,135.27,122.46,211.83,19.62,49.29,33.44,99.88,29.06,153.67-1.04,12.81-3.2,25.84-7.14,38.03-13.16,40.7-41.81,64-83.59,72.31-46.03,9.15-90.26.58-133.92-12.82-60.76-18.64-117.08-46.99-171.1-80.16-51.89-31.85-99.89-69.01-146.87-107.54-6.87-5.64-13.19-11.99-19.37-18.39-1.92-1.99-2.53-5.23-3.75-7.9,2.82.71,6.19.67,8.39,2.25,32.18,23.19,63.51,47.64,96.42,69.74,61.45,41.25,126.95,75.13,197.97,96.5,32.36,9.74,66.07,15.71,99.57,20.65,15.57,2.3,32.2-1.16,48.16-3.34,45.35-6.21,62.39-42.01,64.82-76.17,2.21-31.15-3.81-61.54-14.35-90.6-37.46-103.29-99.78-188.42-189.44-252.44-28.11-20.07-60.4-30.91-95.36-32.06-31.73-1.05-58.28,10.18-80.6,32.95-26.63,27.18-54.07,53.55-81.13,80.31-82.31,81.41-164.69,162.76-246.88,244.29-71.87,71.29-143.36,142.98-215.38,214.12-18.99,18.76-39.3,36.2-59.17,54.06-1.25,1.12-3.94.63-5.96.89.53-1.48.7-3.28,1.66-4.38,5.33-6.09,10.78-12.08,16.34-17.96,60.6-64.16,121.94-127.64,181.6-192.66,42.66-46.49,83.34-94.81,124.28-142.85,8.82-10.35,15.79-22.56,22.18-34.67,16.33-30.98,17.36-63.27,7.12-96.53-9.2-29.86-24.81-56.16-42.95-81.19-36.63-50.55-71.31-102.33-99.29-158.28-22.16-44.32-40.4-90.04-50.12-138.92-5.74-28.88-6.8-57.83-2.99-86.86,7.19-54.69,44.92-90.42,99.53-96.65,59.05-6.73,113.99,8.48,167.83,29.89,89.68,35.66,169.31,88.02,244.14,148.17,23.92,19.23,49.28,36.95,67.61,62.28Z"/>
  </g>
</svg>